# xmcd
#
# Track frame offsets: 
#        150
#        14802
#        17881
#        18696
#        37156
#        58403
#        72797
#        76469
#        78784
#        86313
#        89179
#        104734
#        118032
#        118709
#        123991
#        128523
#        129443
#        136302
#        141230
#        150322
#        153951
#        158161
#        162011
#        169141
#        177766
#        190734
#        203169
#        220941
#        231970
#        246394
#        261768
#        267555
#        278654
#
# Disc length: 3840 seconds
#
# Revision: 0
# Processed by: cddbd v1.5.2PL0 Copyright (c) Steve Scherf et al.
# Submitted via: ExactAudioCopy v0.99pb4
#
DISCID=da0efe21
DTITLE=Paul Westerberg - Unintentionally
DYEAR=1981
DGENRE=Ambient
TTITLE0=It's Hard to Wave in Handcuffs
TTITLE1=piano noises
TTITLE2=Bad Worker 1
TTITLE3=Bad Worker 2
TTITLE4=You're Getting Married
TTITLE5=Hold Me in Suspension
TTITLE6=Gimme Torture
TTITLE7=A Little Bit Drunk 1
TTITLE8=A Little Bit Drunk 2
TTITLE9=Paul tunes up
TTITLE10=A Little Bit Drunk 3
TTITLE11=All That We've Been Through
TTITLE12=Still Be Waiting 1
TTITLE13=Still Be Waiting 2
TTITLE14=I Wish You Were Lonely
TTITLE15=Still Be Waiting 3
TTITLE16=If Only You Were Lonely
TTITLE17=Fuck School
TTITLE18=Gas Station Attendant
TTITLE19=Behind My Back
TTITLE20=Mama Said
TTITLE21=instrumental
TTITLE22=Never Fit In
TTITLE23=Cool My Jets
TTITLE24=Answering Machine 1
TTITLE25=Answering Machine 2
TTITLE26=Take Me Down to the Hospital
TTITLE27=If Only You Were Lonely
TTITLE28=I'm in Trouble
TTITLE29=Treatment Bound
TTITLE30=I'm Drunk (aka Outta My Way)
TTITLE31=Shutup
TTITLE32=Lawdy Miss Clawdy
EXTD=
EXTT0=
EXTT1=
EXTT2=
EXTT3=
EXTT4=
EXTT5=
EXTT6=
EXTT7=
EXTT8=
EXTT9=
EXTT10=
EXTT11=
EXTT12=
EXTT13=
EXTT14=
EXTT15=
EXTT16=
EXTT17=
EXTT18=
EXTT19=
EXTT20=
EXTT21=
EXTT22=
EXTT23=
EXTT24=
EXTT25=
EXTT26=
EXTT27=
EXTT28=
EXTT29=
EXTT30=
EXTT31=
EXTT32=
PLAYORDER=
